<?xml version="1.0" encoding="utf-8"?>
<!-- Generator: Adobe Illustrator 24.0.0, SVG Export Plug-In . SVG Version: 6.00 Build 0)  -->
<svg version="1.1" id="Layer_1" xmlns="http://www.w3.org/2000/svg" xmlns:xlink="http://www.w3.org/1999/xlink" x="0px" y="0px"
	 viewBox="0 0 64 68" style="enable-background:new 0 0 64 68;" xml:space="preserve">
<style type="text/css">
	.st0{fill:#6939E2;}
</style>
<title>bed_purple</title>
<path class="st0" d="M4.2,29.5V16.6c0.1-1.2-0.8-2.1-1.9-2.2c-1.2-0.1-2.1,0.8-2.2,1.9c0,0.1,0,0.2,0,0.3v34.8
	c-0.1,1.2,0.8,2.1,1.9,2.2c1.2,0.1,2.1-0.8,2.2-1.9c0-0.1,0-0.2,0-0.3v-6.3h55.7v6.3c-0.1,1.2,0.8,2.1,1.9,2.2
	c1.2,0.1,2.1-0.8,2.2-1.9c0-0.1,0-0.2,0-0.3V29.5H4.2z"/>
<path class="st0" d="M8.1,24.3h12.3c1,0,1.9,0.9,1.9,1.9v0.4c0,1-0.9,1.9-1.9,1.9H8.1c-1,0-1.9-0.9-1.9-1.9v-0.4
	C6.2,25.2,7,24.3,8.1,24.3z"/>
</svg>
