<svg id="Layer_1" data-name="Layer 1" xmlns="http://www.w3.org/2000/svg" viewBox="0 0 64 68"><defs><style>.cls-1{fill:#fccd41;}</style></defs><title>lightBulb_icon</title><path class="cls-1" d="M38.43,57.83H27.18a1.25,1.25,0,1,1,0-2.5H38.43a1.25,1.25,0,0,1,0,2.5Z"/><path class="cls-1" d="M38.43,62.18H27.18a1.25,1.25,0,0,1,0-2.5H38.43a1.25,1.25,0,0,1,0,2.5Z"/><path class="cls-1" d="M35.59,66.53H30A1.25,1.25,0,0,1,30,64h5.58a1.25,1.25,0,0,1,0,2.5Z"/><path class="cls-1" d="M38.43,53.25H27.18a3.13,3.13,0,0,1-3.1-3.46c.42-3.82.29-6.73-.41-8.91C22.89,38.44,21,36.2,19.23,34c-.59-.71-1.17-1.41-1.71-2.11a19.31,19.31,0,0,1-4-13.08A19.53,19.53,0,0,1,32.8.93a19.22,19.22,0,0,1,15.29,31c-.54.7-1.12,1.4-1.71,2.11-1.8,2.17-3.66,4.4-4.44,6.84-.7,2.18-.83,5.1-.42,8.91a3.11,3.11,0,0,1-3.09,3.46Z"/></svg>