<svg id="Layer_1" data-name="Layer 1" xmlns="http://www.w3.org/2000/svg" viewBox="0 0 64 68"><defs><style>.cls-1{fill:#6939e2;}</style></defs><title>bed_purple</title><path class="cls-1" d="M52.26,19.45a2.37,2.37,0,0,0-2.38-2.38H14.12a2.37,2.37,0,0,0-2.38,2.38V38.36H52.26Z"/><path class="cls-1" d="M62.88,26.7H56a1.12,1.12,0,0,0-1.11,1.12V41.33H9.14V27.82A1.12,1.12,0,0,0,8,26.7H1.12A1.12,1.12,0,0,0,0,27.82v22a1.12,1.12,0,0,0,1.12,1.12H8a1.12,1.12,0,0,0,1.11-1.12V48.65H54.86v1.16A1.12,1.12,0,0,0,56,50.93h6.91A1.12,1.12,0,0,0,64,49.81v-22A1.12,1.12,0,0,0,62.88,26.7Z"/></svg>