<svg id="Layer_1" data-name="Layer 1" xmlns="http://www.w3.org/2000/svg" viewBox="0 0 64 68"><defs><style>.cls-1{fill:#fff;}</style></defs><title>navbar__main_icon</title><path class="cls-1" d="M32,2.1a32,32,0,0,0-23.21,54L.69,62.76A1.88,1.88,0,0,0,1.88,66.1H32a32,32,0,0,0,0-64Zm0,60.23H7.15l5.64-4.62a1.88,1.88,0,0,0,.08-2.84A28.24,28.24,0,1,1,32,62.33Z"/><path class="cls-1" d="M45.86,28.3H18.63a1.89,1.89,0,0,0,0,3.77H45.86a1.89,1.89,0,1,0,0-3.77Z"/><path class="cls-1" d="M32.25,37.32H18.63a1.89,1.89,0,0,0,0,3.77H32.25a1.89,1.89,0,0,0,0-3.77Z"/><path class="cls-1" d="M45.86,37.32H41.93a1.89,1.89,0,0,0,0,3.77h3.93a1.89,1.89,0,1,0,0-3.77Z"/></svg>