<svg id="Layer_1" data-name="Layer 1" xmlns="http://www.w3.org/2000/svg" viewBox="0 0 64 68"><defs><style>.cls-1{fill:#6939e2;}</style></defs><title>profile picture</title><path class="cls-1" d="M32,2.1a32,32,0,0,0-32,32,1.77,1.77,0,0,0,3.54,0,28.46,28.46,0,1,1,9.7,21.4l5.35.58h.2A1.76,1.76,0,0,0,19,52.57L8.85,51.47a1.8,1.8,0,0,0-1.37.45l-.14.14-.09.12a1.74,1.74,0,0,0-.38,1.36l1.54,9.85a1.77,1.77,0,1,0,3.5-.54l-.69-4.41A32,32,0,1,0,32,2.1Z"/><path class="cls-1" d="M32,16.67a1.77,1.77,0,0,0-1.77,1.77V34.1A1.77,1.77,0,0,0,32,35.87H44a1.77,1.77,0,0,0,0-3.54H33.77V18.44A1.77,1.77,0,0,0,32,16.67Z"/></svg>