<svg id="Layer_1" data-name="Layer 1" xmlns="http://www.w3.org/2000/svg" viewBox="0 0 64 68"><defs><style>.cls-1{fill:#aeaeae;}</style></defs><title>profile picture</title><path class="cls-1" d="M38.43,57.83H27.18a1.25,1.25,0,1,1,0-2.5H38.43a1.25,1.25,0,0,1,0,2.5Z"/><path class="cls-1" d="M38.43,62.18H27.18a1.25,1.25,0,0,1,0-2.5H38.43a1.25,1.25,0,0,1,0,2.5Z"/><path class="cls-1" d="M35.59,66.53H30A1.25,1.25,0,0,1,30,64h5.58a1.25,1.25,0,0,1,0,2.5Z"/><path class="cls-1" d="M38.43,53.25H27.18a3.13,3.13,0,0,1-3.1-3.46c.42-3.82.29-6.73-.41-8.91C22.89,38.44,21,36.2,19.23,34c-.59-.71-1.17-1.41-1.71-2.11a19.31,19.31,0,0,1-4-13.08A19.53,19.53,0,0,1,32.8.93a19.22,19.22,0,0,1,15.29,31c-.54.7-1.12,1.4-1.71,2.11-1.8,2.16-3.66,4.4-4.44,6.84-.7,2.18-.83,5.09-.42,8.91a3.11,3.11,0,0,1-3.09,3.46ZM32.8,3.93A16.49,16.49,0,0,0,16.53,19.05,16.31,16.31,0,0,0,19.89,30.1c.52.67,1.08,1.34,1.65,2,2,2.39,4,4.85,5,7.84a24,24,0,0,1,.61,9.53.58.58,0,0,0,.56.63H37.91a.58.58,0,0,0,.57-.63,24.23,24.23,0,0,1,.6-9.53c1-3,3-5.45,5-7.84.57-.68,1.13-1.35,1.65-2A16.23,16.23,0,0,0,32.8,3.93Z"/></svg>