<svg id="Layer_1" data-name="Layer 1" xmlns="http://www.w3.org/2000/svg" viewBox="0 0 64 68"><defs><style>.cls-1{fill:#6939e2;}</style></defs><title>profile picture</title><path class="cls-1" d="M63.42,33,33.08,4.63a1.77,1.77,0,0,0-2.43,0L.53,33.22a1.77,1.77,0,0,0,1.22,3.05h0l7.76,0,.14,26.05a1.76,1.76,0,0,0,1.77,1.76h0l41.39-.18a1.77,1.77,0,0,0,1.25-.52,1.8,1.8,0,0,0,.51-1.26l-.13-26,7.76,0A1.77,1.77,0,0,0,63.42,33Zm-10.75-.43a1.76,1.76,0,0,0-1.76,1.78l.13,26-12.58,0-.08-16.78a2.76,2.76,0,0,0-2.78-2.76l-7.1,0a2.77,2.77,0,0,0-2.77,2.79l.08,16.78-12.62,0-.13-26a1.78,1.78,0,0,0-1.77-1.76h0l-5.07,0L31.88,8.35,57.74,32.49Z"/></svg>