<svg id="Layer_1" data-name="Layer 1" xmlns="http://www.w3.org/2000/svg" viewBox="0 0 64 68"><defs><style>.cls-1{fill:#aeaeae;}.cls-2,.cls-3{fill:none;stroke:#aeaeae;stroke-miterlimit:10;}.cls-2{stroke-linecap:round;}.cls-3{stroke-width:0.69px;}</style></defs><title>profile picture</title><path class="cls-1" d="M1.95.58h56A3.37,3.37,0,0,1,61.32,4V6.52a0,0,0,0,1,0,0H1.95a.74.74,0,0,1-.74-.74V1.32A.74.74,0,0,1,1.95.58Z"/><line class="cls-2" x1="1.72" y1="13.52" x2="56.27" y2="13.52"/><line class="cls-2" x1="1.72" y1="53.82" x2="56.27" y2="53.82"/><line class="cls-2" x1="1.72" y1="45.76" x2="56.27" y2="45.76"/><line class="cls-2" x1="1.72" y1="37.7" x2="56.27" y2="37.7"/><line class="cls-2" x1="1.72" y1="29.64" x2="56.27" y2="29.64"/><line class="cls-2" x1="1.72" y1="21.58" x2="56.27" y2="21.58"/><rect class="cls-1" x="60.52" y="6.52" width="0.8" height="53.74"/><rect class="cls-3" x="59.05" y="60.27" width="3.75" height="7.15" rx="1.87"/></svg>