<svg id="Layer_1" data-name="Layer 1" xmlns="http://www.w3.org/2000/svg" viewBox="0 0 68 68"><defs><style>.cls-1{fill:#fccd41;}.cls-2{fill:#fff;}</style></defs><title>profile picture</title><rect class="cls-1" width="68" height="68"/><path class="cls-2" d="M40.19,27.56a9.07,9.07,0,0,0,2.86-6.62V19.33a6.7,6.7,0,0,0-12.61-3.18,6.65,6.65,0,0,0-4.68-1.92,6.72,6.72,0,0,0-6.71,6.71,9.14,9.14,0,0,0,9.12,9.13h9.3a8.65,8.65,0,1,1,0,17.29H33.59a1.42,1.42,0,1,0,0,2.83h3.88a11.48,11.48,0,0,0,2.72-22.63ZM21.88,20.94a3.88,3.88,0,1,1,7.75,0v6.29H28.17A6.29,6.29,0,0,1,21.88,20.94Zm10.59,6.29v-7.9a3.88,3.88,0,1,1,7.75,0v1.61a6.29,6.29,0,0,1-6.29,6.29Z"/><path class="cls-2" d="M39.15,40.73a2,2,0,1,0-2-2A2,2,0,0,0,39.15,40.73Z"/></svg>